# xmcd
#
# Track frame offsets: 
#        150
#        15540
#        35933
#        45648
#        63401
#        81808
#        95165
#        108566
#        127169
#        143504
#        161696
#        184810
#        196525
#        213830
#        229634
#        248718
#        265538
#        281384
#        295532
#        307802
#
# Disc length: 4448 seconds
#
# Revision: 0
# Processed by: cddbd v1.5.2PL0 Copyright (c) Steve Scherf et al.
# Submitted via: ExactAudioCopy v0.99pb1
#
DISCID=10115e14
DTITLE=The Old Spice Boys - Live At The Rails
DYEAR=2004
DGENRE=Blues
TTITLE0=Caravan
TTITLE1=Let's Get Wet
TTITLE2=A Foggy Day
TTITLE3=Clever Dick
TTITLE4=Hell Train
TTITLE5=I'm Not An Alcoholic...
TTITLE6=Real Nice Guy
TTITLE7=Clever Bastards
TTITLE8=St Louis Blues
TTITLE9=Who Gave You A Licence...
TTITLE10=Perchman Farm
TTITLE11=Broken Caravan
TTITLE12=Kiss
TTITLE13=She Drives A Truck
TTITLE14=Little Red Snake
TTITLE15=Don't Let It Die
TTITLE16=The Spotted Dog
TTITLE17=I Wanna Get Stoned and Pick...
TTITLE18=Clown Raga
TTITLE19=Who Do You Love?
EXTD=
EXTT0=
EXTT1=
EXTT2=
EXTT3=
EXTT4=
EXTT5=
EXTT6=
EXTT7=
EXTT8=
EXTT9=
EXTT10=
EXTT11=
EXTT12=
EXTT13=
EXTT14=
EXTT15=
EXTT16=
EXTT17=
EXTT18=
EXTT19=
PLAYORDER=
